<svg xmlns="http://www.w3.org/2000/svg" width="35.081" height="32" viewBox="0 0 35.081 32"><defs><style>.a{fill:none;}.b,.c{stroke:none;}.c{fill:#fff;}</style></defs><g class="a" transform="translate(3.287)"><path class="b" d="M16,0c8.837,0,15.794,4.408,15.794,13.245S24.837,32,16,32-3.287,27.881-3.287,19.044,7.163,0,16,0Z"/><path class="c" d="M 15.99999618530273 4 C 12.91089630126953 4 9.020906448364258 5.938869476318359 5.848066329956055 9.059989929199219 C 2.680875778198242 12.17555046081543 0.7133769989013672 16.00130081176758 0.7133769989013672 19.04425048828125 C 0.7133769989013672 20.34375953674316 1.063045501708984 21.48500061035156 1.782365798950195 22.53321075439453 C 2.508485794067383 23.59130859375 3.602756500244141 24.54474067687988 5.034786224365234 25.36701965332031 C 7.906045913696289 27.01570892333984 12.00519561767578 28 15.99999618530273 28 C 17.42752647399902 28 18.85134506225586 27.60548973083496 20.23190689086914 26.82744026184082 C 21.61117553710938 26.05011940002441 22.94096565246582 24.88215065002441 24.0775260925293 23.44979858398438 C 26.40493583679199 20.51665115356445 27.79443550109863 16.70170021057129 27.79443550109863 13.24481010437012 C 27.79443550109863 11.70222091674805 27.51345634460449 10.33139038085938 26.95931625366211 9.170400619506836 C 26.45928573608398 8.122779846191406 25.71895599365234 7.213899612426758 24.75890731811523 6.469009399414063 C 22.70682525634766 4.876850128173828 19.59618759155273 4 15.99999618530273 4 M 15.99999618530273 0 C 24.83655548095703 0 31.79443550109863 4.408260345458984 31.79443550109863 13.24481010437012 C 31.79443550109863 22.08137130737305 24.83655548095703 32 15.99999618530273 32 C 7.163446426391602 32 -3.286623001098633 27.88080978393555 -3.286623001098633 19.04425048828125 C -3.286623001098633 10.20768928527832 7.163446426391602 0 15.99999618530273 0 Z"/></g></svg>