<svg xmlns="http://www.w3.org/2000/svg" width="29.867" height="32" viewBox="0 0 29.867 32"><defs><style>.a{fill:none;}.b,.c{stroke:none;}.c{fill:#fff;}</style></defs><g class="a" transform="translate(-2.133)"><path class="b" d="M16,0a16,16,0,0,1,0,32C7.163,32,2.133,21.795,2.133,12.958S7.163,0,16,0Z"/><path class="c" d="M 15.99999618530273 4 C 12.54608535766602 4 10.00078582763672 4.717649459838867 8.434806823730469 6.132999420166016 C 7.717445373535156 6.781360626220703 7.183725357055664 7.590850830078125 6.803146362304688 8.60774040222168 C 6.358346939086914 9.796220779418945 6.132816314697266 11.25996971130371 6.132816314697266 12.95833969116211 C 6.132816314697266 16.74818992614746 7.246665954589844 20.73460960388184 9.112377166748047 23.62202072143555 C 10.03586578369141 25.05125045776367 11.09430694580078 26.15285110473633 12.25829696655273 26.89622116088867 C 13.42128562927246 27.63895034790039 14.64520645141602 28 15.99999618530273 28 C 19.2053165435791 28 22.21877670288086 26.75177955627441 24.48527526855469 24.48527908325195 C 26.75177574157715 22.21878051757813 27.99999618530273 19.20532035827637 27.99999618530273 16 C 27.99999618530273 12.79467964172363 26.75177574157715 9.781219482421875 24.48527526855469 7.514720916748047 C 22.21877670288086 5.248220443725586 19.2053165435791 4 15.99999618530273 4 M 15.99999618530273 0 C 24.83655548095703 0 31.99999618530273 7.163440704345703 31.99999618530273 16 C 31.99999618530273 24.8365592956543 24.83655548095703 32 15.99999618530273 32 C 7.163446426391602 32 2.132816314697266 21.79489135742188 2.132816314697266 12.95833969116211 C 2.132816314697266 4.121780395507813 7.163446426391602 0 15.99999618530273 0 Z"/></g></svg>