<svg xmlns="http://www.w3.org/2000/svg" width="31.078" height="32.445" viewBox="0 0 31.078 32.445"><defs><style>.a{fill:none;}.b,.c{stroke:none;}.c{fill:#fff;}</style></defs><g class="a" transform="translate(0 -2.555)"><path class="b" d="M13.362,2.555c9.665,0,17.716,5.28,17.716,14.945S27.165,35,17.5,35A17.5,17.5,0,0,1,0,17.5C0,7.835,3.7,2.555,13.362,2.555Z"/><path class="c" d="M 13.36181259155273 6.554683685302734 C 9.862422943115234 6.554683685302734 7.49171257019043 7.348623275756836 6.114212036132813 8.981863021850586 C 4.711322784423828 10.64519309997559 4.000001907348633 13.5111141204834 4.000001907348633 17.50000381469727 C 4.000001907348633 21.10598373413086 5.404253005981445 24.49613380432129 7.954063415527344 27.04594421386719 C 10.50387191772461 29.59575271606445 13.89402198791504 31.00000381469727 17.50000381469727 31.00000381469727 C 19.1935920715332 31.00000381469727 20.66489219665527 30.68571472167969 21.87304306030273 30.06585311889648 C 22.96452331542969 29.5058536529541 23.86362266540527 28.69984436035156 24.62172317504883 27.60178375244141 C 26.22871208190918 25.27415466308594 27.07812309265137 21.78101348876953 27.07812309265137 17.50000381469727 C 27.07812309265137 14.15334320068359 25.83207321166992 11.4783935546875 23.37459182739258 9.549453735351563 C 20.91422271728516 7.618244171142578 17.3582820892334 6.554683685302734 13.36181259155273 6.554683685302734 M 13.36181259155273 2.554683685302734 C 23.02680206298828 2.554683685302734 31.07812309265137 7.835014343261719 31.07812309265137 17.50000381469727 C 31.07812309265137 27.16498374938965 27.16498184204102 35.00000381469727 17.50000381469727 35.00000381469727 C 7.83502197265625 35.00000381469727 1.9073486328125e-06 27.16498374938965 1.9073486328125e-06 17.50000381469727 C 1.9073486328125e-06 7.835014343261719 3.696832656860352 2.554683685302734 13.36181259155273 2.554683685302734 Z"/></g></svg>